<svg width="24" height="24" viewBox="0 0 24 24" fill="none" xmlns="http://www.w3.org/2000/svg">
<circle cx="12" cy="12" r="12" fill="#07ABBC"/>
<path d="M7.3335 11.125C6.85025 11.125 6.4585 11.5167 6.4585 12C6.4585 12.4832 6.85025 12.875 7.3335 12.875H11.1252V16.6667C11.1252 17.1499 11.5169 17.5417 12.0002 17.5417C12.4834 17.5417 12.8752 17.1499 12.8752 16.6667V12.875H16.6668C17.1501 12.875 17.5418 12.4832 17.5418 12C17.5418 11.5167 17.1501 11.125 16.6668 11.125H12.8752V7.33333C12.8752 6.85008 12.4834 6.45833 12.0002 6.45833C11.5169 6.45833 11.1252 6.85008 11.1252 7.33333V11.125H7.3335Z" fill="white"/>
</svg>
