<svg width="20" height="21" viewBox="0 0 20 21" fill="none" xmlns="http://www.w3.org/2000/svg">
<path d="M7 8.5V10.5H3.5V8.5H7Z" fill="white"/>
<path d="M12 8.5H8.5V10.5H12V8.5Z" fill="white"/>
<path d="M3.5 12H7V14H3.5V12Z" fill="white"/>
<path d="M7 15.5H3.5V17.5H7V15.5Z" fill="white"/>
<path d="M12 15.5H8.5V17.5H12V15.5Z" fill="white"/>
<path d="M12 14H8.5V12H12V14Z" fill="white"/>
<path d="M13.5 17.5V15.5H16.5V17.5H13.5Z" fill="white"/>
<path d="M16.5 12V14H13.5V12H16.5Z" fill="white"/>
<path d="M16.5 10.5V8.5H13.5V10.5H16.5Z" fill="white"/>
<path fill-rule="evenodd" clip-rule="evenodd" d="M5 0C4.44772 0 4 0.447715 4 1V2H2C0.895431 2 0 2.89543 0 4V19C0 20.1046 0.895431 21 2 21H18C19.1046 21 20 20.1046 20 19V4C20 2.89543 19.1046 2 18 2H16V1C16 0.447715 15.5523 0 15 0C14.4477 0 14 0.447715 14 1V2H6V1C6 0.447715 5.55228 0 5 0ZM2 19V7H18V19H2Z" fill="white"/>
</svg>
