<svg width="30" height="30" viewBox="0 0 30 30" fill="none" xmlns="http://www.w3.org/2000/svg">
<path d="M15 15C19.1421 15 22.4999 11.6421 22.4999 7.49998C22.4999 3.35786 19.1421 0 15 0C10.8578 0 7.49998 3.35786 7.49998 7.49998C7.49998 11.6421 10.8578 15 15 15Z" fill="white"/>
<path d="M0 24.375C0 20.0477 2.93186 16.4052 6.91753 15.3254C8.96262 17.4373 11.828 18.75 15 18.75C18.1719 18.75 21.0373 17.4373 23.0824 15.3254C27.0681 16.4052 29.9999 20.0477 29.9999 24.375V26.25C29.9999 28.3211 28.321 30 26.2499 30H3.74999C1.67893 30 0 28.3211 0 26.25V24.375Z" fill="white"/>
</svg>
