<svg width="20" height="20" viewBox="0 0 20 20" fill="none" xmlns="http://www.w3.org/2000/svg">
<path d="M10 19.375C11.8542 19.375 13.6668 18.8252 15.2085 17.795C16.7502 16.7649 17.9518 15.3007 18.6614 13.5877C19.3709 11.8746 19.5566 9.98961 19.1949 8.17103C18.8331 6.35246 17.9402 4.68199 16.6291 3.37088C15.318 2.05976 13.6475 1.16688 11.829 0.805138C10.0104 0.443402 8.1254 0.629058 6.41234 1.33863C4.69929 2.0482 3.23511 3.24982 2.20497 4.79153C1.17483 6.33324 0.625 8.1458 0.625 10C0.625 12.4864 1.61272 14.871 3.37087 16.6291C5.12903 18.3873 7.5136 19.375 10 19.375ZM10 4.1375C10.2472 4.1375 10.4889 4.21081 10.6945 4.34817C10.9 4.48552 11.0602 4.68074 11.1549 4.90915C11.2495 5.13756 11.2742 5.38889 11.226 5.63137C11.1778 5.87384 11.0587 6.09657 10.8839 6.27139C10.7091 6.4462 10.4863 6.56525 10.2439 6.61349C10.0014 6.66172 9.75005 6.63696 9.52165 6.54235C9.29324 6.44774 9.09801 6.28753 8.96066 6.08197C8.82331 5.8764 8.75 5.63473 8.75 5.3875C8.75 5.05598 8.8817 4.73804 9.11612 4.50362C9.35054 4.2692 9.66848 4.1375 10 4.1375ZM8.75 10C8.75 9.66848 8.8817 9.35054 9.11612 9.11612C9.35054 8.8817 9.66848 8.75 10 8.75C10.3315 8.75 10.6495 8.8817 10.8839 9.11612C11.1183 9.35054 11.25 9.66848 11.25 10V15C11.25 15.3315 11.1183 15.6495 10.8839 15.8839C10.6495 16.1183 10.3315 16.25 10 16.25C9.66848 16.25 9.35054 16.1183 9.11612 15.8839C8.8817 15.6495 8.75 15.3315 8.75 15V10Z" fill="#9CB6CB"/>
</svg>
