<svg xmlns="http://www.w3.org/2000/svg" width="14" height="14" fill="none"><path fill-rule="evenodd" clip-rule="evenodd" d="M10.347 1.228a6.639 6.639 0 0 1 2.426 2.426A6.522 6.522 0 0 1 13.667 7c0 1.21-.298 2.325-.894 3.347a6.637 6.637 0 0 1-2.426 2.426A6.522 6.522 0 0 1 7 13.667a6.522 6.522 0 0 1-3.346-.894 6.638 6.638 0 0 1-2.427-2.426A6.522 6.522 0 0 1 .333 7c0-1.21.298-2.325.895-3.346a6.637 6.637 0 0 1 2.426-2.426A6.521 6.521 0 0 1 7 .333c1.21 0 2.325.298 3.347.895Zm-.977 9.86a4.709 4.709 0 0 0 1.719-1.718A4.616 4.616 0 0 0 11.722 7c0-.856-.21-1.646-.633-2.37A4.708 4.708 0 0 0 9.37 2.912 4.616 4.616 0 0 0 7 2.278c-.856 0-1.646.211-2.37.634A4.707 4.707 0 0 0 2.912 4.63 4.616 4.616 0 0 0 2.278 7c0 .857.211 1.647.634 2.37a4.708 4.708 0 0 0 1.718 1.719 4.616 4.616 0 0 0 2.37.633c.857 0 1.647-.21 2.37-.633ZM7.278 3.668h.556a.27.27 0 0 1 .2.078.27.27 0 0 1 .077.2v3.888a.27.27 0 0 1-.078.2.27.27 0 0 1-.2.078H5.057a.27.27 0 0 1-.2-.078.27.27 0 0 1-.078-.2v-.555a.27.27 0 0 1 .078-.2.27.27 0 0 1 .2-.078H7V3.944c0-.08.026-.147.078-.2a.27.27 0 0 1 .2-.077Z" fill="#2C4A62"/></svg>
