<svg width="15" height="15" viewBox="0 0 16 16" fill="none" xmlns="http://www.w3.org/2000/svg">
<path d="M3.18343 0.960405C2.56956 0.346532 1.57428 0.346532 0.960405 0.960405C0.346532 1.57428 0.346532 2.56956 0.960405 3.18343L5.77697 8L0.960405 12.8166C0.346532 13.4304 0.346532 14.4257 0.960405 15.0396C1.57428 15.6535 2.56956 15.6535 3.18343 15.0396L8 10.223L12.8166 15.0396C13.4304 15.6535 14.4257 15.6535 15.0396 15.0396C15.6535 14.4257 15.6535 13.4304 15.0396 12.8166L10.223 8L15.0396 3.18343C15.6535 2.56956 15.6535 1.57428 15.0396 0.960405C14.4257 0.346532 13.4304 0.346532 12.8166 0.960405L8 5.77697L3.18343 0.960405Z" fill="#69869E"/>
</svg>
