<svg width="13" height="13" viewBox="0 0 13 13" fill="none" xmlns="http://www.w3.org/2000/svg">
    <path d="M11.2116 2.1875H1.78841C1.139 2.1875 0.610512 2.70727 0.610512 3.34598V9.52455C0.610512 10.1633 1.139 10.683 1.78841 10.683H2.96631V12.6138C2.96631 12.7625 3.05308 12.8973 3.18854 12.9618C3.24311 12.9873 3.30122 13 3.35894 13C3.4465 13 3.53327 12.9714 3.60434 12.9154L6.4415 10.683H11.2116C11.861 10.683 12.3895 10.1633 12.3895 9.52455V3.34598C12.3895 2.70727 11.861 2.1875 11.2116 2.1875ZM6.5 7.59375H3.35894C3.14181 7.59375 2.96631 7.42075 2.96631 7.20759C2.96631 6.99443 3.14181 6.82143 3.35894 6.82143H6.5C6.71713 6.82143 6.89263 6.99443 6.89263 7.20759C6.89263 7.42075 6.71713 7.59375 6.5 7.59375ZM9.64106 6.04911H3.35894C3.14181 6.04911 2.96631 5.87611 2.96631 5.66295C2.96631 5.44979 3.14181 5.27679 3.35894 5.27679H9.64106C9.85819 5.27679 10.0337 5.44979 10.0337 5.66295C10.0337 5.87611 9.85819 6.04911 9.64106 6.04911Z" fill="white" fill-opacity="0.9"/>
</svg>
