<svg width="20" height="18" viewBox="0 0 20 18" fill="none" xmlns="http://www.w3.org/2000/svg">
<path fill-rule="evenodd" clip-rule="evenodd" d="M5 4V2C5 0.89543 5.89543 0 7 0H13C14.1046 0 15 0.895431 15 2V4H18C19.1046 4 20 4.89543 20 6V10H0V6C0 4.89543 0.895431 4 2 4H5ZM7 2H13V4H7V2Z" fill="white"/>
<path d="M8 11H0V16C0 17.1046 0.895431 18 2 18H18C19.1046 18 20 17.1046 20 16V11H12V13C12 13.5523 11.5523 14 11 14H9C8.44772 14 8 13.5523 8 13V11Z" fill="white"/>
<path d="M11 11H9V13H11V11Z" fill="white"/>
</svg>
