<svg width="21" height="21" viewBox="0 0 21 21" fill="none" xmlns="http://www.w3.org/2000/svg">
<path d="M16.6899 6.13266C15.2134 4.61625 13.2599 3.69221 11.1808 3.5268C9.10172 3.36139 7.03356 3.96548 5.34844 5.23036C3.66332 6.49524 2.47189 8.33787 1.98851 10.4267C1.50513 12.5156 1.76155 14.7135 2.71162 16.625H18.2819C19.1289 14.9276 19.4311 12.9973 19.145 11.1119C18.8589 9.22642 17.9993 7.48305 16.6899 6.13266ZM10.4968 4.90309C10.6356 4.9031 10.7714 4.94562 10.8868 5.02525C11.0021 5.10488 11.0919 5.21803 11.1447 5.35032C11.1975 5.48261 11.2108 5.62806 11.1832 5.76821C11.1555 5.90836 11.088 6.03687 10.9892 6.13742C10.8904 6.23796 10.7649 6.30601 10.6285 6.33291C10.4921 6.35981 10.351 6.34435 10.2231 6.2885C10.0953 6.23264 9.98643 6.13891 9.91043 6.01921C9.83442 5.89951 9.79468 5.75925 9.79626 5.61624C9.79836 5.42635 9.87308 5.24497 10.0042 5.11146C10.1354 4.97795 10.3124 4.90308 10.4968 4.90309ZM3.80217 13.2314C3.66296 13.2313 3.52691 13.1886 3.41139 13.1086C3.29587 13.0286 3.20613 12.9149 3.15361 12.7822C3.10109 12.6494 3.08818 12.5035 3.11652 12.3632C3.14487 12.2228 3.21318 12.0943 3.31275 11.9941C3.41232 11.8939 3.53862 11.8266 3.67553 11.8006C3.81245 11.7747 3.95377 11.7913 4.08146 11.8484C4.20915 11.9055 4.31742 12.0005 4.39244 12.1213C4.46746 12.2421 4.50584 12.3831 4.50268 12.5264C4.49852 12.7149 4.42288 12.8942 4.29196 13.0259C4.16104 13.1577 3.98523 13.2314 3.80217 13.2314ZM6.2619 8.14916C6.16369 8.2494 6.03886 8.31747 5.90314 8.34479C5.76743 8.3721 5.6269 8.35745 5.49926 8.30266C5.37162 8.24788 5.26258 8.15542 5.18589 8.03693C5.10919 7.91845 5.06826 7.77923 5.06826 7.63684C5.06826 7.49444 5.10919 7.35523 5.18589 7.23674C5.26258 7.11825 5.37162 7.02579 5.49926 6.97101C5.6269 6.91623 5.76743 6.90157 5.90314 6.92889C6.03886 6.9562 6.16369 7.02427 6.2619 7.12452C6.39267 7.26103 6.46598 7.44508 6.46598 7.63684C6.46598 7.82859 6.39267 8.01264 6.2619 8.14916ZM13.3625 9.95253L11.85 11.9526C11.976 12.2716 11.991 12.6256 11.8924 12.9547C11.7938 13.2837 11.5877 13.5675 11.3091 13.7579C11.0305 13.9483 10.6965 14.0336 10.3638 13.9993C10.031 13.965 9.72006 13.8132 9.48361 13.5697C9.24716 13.3262 9.09978 13.006 9.06648 12.6634C9.03317 12.3208 9.11599 11.9768 9.30089 11.6899C9.48579 11.403 9.76138 11.1908 10.0809 11.0892C10.4004 10.9877 10.7442 11.0032 11.054 11.1329L12.9963 9.57546C13.0475 9.54734 13.1061 9.53691 13.1635 9.54571C13.2209 9.5545 13.274 9.58205 13.315 9.6243C13.3561 9.66655 13.3828 9.72126 13.3914 9.78035C13.3999 9.83945 13.3898 9.89981 13.3625 9.95253ZM15.7505 8.14916C15.6193 8.28331 15.4419 8.3586 15.257 8.3586C15.0721 8.3586 14.8947 8.28331 14.7635 8.14916C14.6327 8.01264 14.5594 7.82859 14.5594 7.63684C14.5594 7.44508 14.6327 7.26103 14.7635 7.12452C14.8954 6.98973 15.074 6.91443 15.2598 6.9152C15.4457 6.91597 15.6236 6.99274 15.7545 7.12861C15.8854 7.26449 15.9585 7.44835 15.9578 7.63973C15.957 7.83112 15.8825 8.01437 15.7505 8.14916ZM17.2232 13.2314C17.0843 13.233 16.9481 13.1921 16.8319 13.1138C16.7156 13.0356 16.6246 12.9235 16.5704 12.7918C16.5161 12.6602 16.5011 12.5149 16.5272 12.3744C16.5534 12.2339 16.6194 12.1046 16.7171 12.0029C16.8147 11.9012 16.9395 11.8317 17.0756 11.8032C17.2117 11.7747 17.353 11.7885 17.4814 11.8428C17.6099 11.8972 17.7198 11.9896 17.7971 12.1084C17.8744 12.2272 17.9157 12.367 17.9157 12.51C17.9158 12.6069 17.8969 12.7027 17.8602 12.7919C17.8235 12.881 17.7698 12.9617 17.7022 13.029C17.6346 13.0963 17.5545 13.1489 17.4668 13.1837C17.379 13.2185 17.2853 13.2347 17.1914 13.2314H17.2232Z" fill="white"/>
</svg>
