<svg xmlns="http://www.w3.org/2000/svg" width="100" height="74" fill="none"><path d="m89.42 16.685-38.643 5.53-1.965.28-36.676-5.492 38.641-4.371 38.643 4.053Z" fill="url(#a)"/><path d="m12.104 17.005 36.675 5.494v50.86L12.103 59.912V17.005Z" fill="url(#b)"/><path d="M89.388 16.687 48.78 22.5v50.86l40.61-13.6V16.686Z" fill="url(#c)"/><path d="M50.777 12.632v9.583l-1.965.28-36.676-5.492 38.641-4.371Z" fill="url(#d)"/><path d="m42.235 0 8.542 12.632-38.642 4.37-8.541-12.63L42.235 0Z" fill="url(#e)"/><path d="M59.261 0 50.72 12.632l38.7 4.053 8.483-13.307L59.26 0Z" fill="url(#f)"/><path d="m89.01 16.743.41 16.237-30.574 6.442-9.94-17.064 40.105-5.615Z" fill="url(#g)"/><path d="m12.811 18.534-.675 14.867 26.779 6.021 9.94-17.064-36.044-3.824Z" fill="url(#h)"/><path d="M12.136 17.003 0 29.598l37.656 7.464 11.2-14.704-36.72-5.355Z" fill="url(#i)"/><path d="M89.42 16.685 100 29.12l-39.87 7.942-11.198-14.704 40.488-5.673Z" fill="url(#j)"/><defs><linearGradient id="a" x1="81.906" y1="12.583" x2="83.111" y2="22.917" gradientUnits="userSpaceOnUse"><stop stop-color="#5D798E"/><stop offset="1" stop-color="#34424D"/></linearGradient><linearGradient id="b" x1="11.921" y1="42.715" x2="47.682" y2="71.855" gradientUnits="userSpaceOnUse"><stop stop-color="#D0E3F3"/><stop offset="1" stop-color="#92B0C8"/></linearGradient><linearGradient id="c" x1="49.007" y1="30.464" x2="69.868" y2="72.848" gradientUnits="userSpaceOnUse"><stop stop-color="#DFEDFA"/><stop offset="1" stop-color="#9FB6CA"/></linearGradient><linearGradient id="d" x1="47.02" y1="12.583" x2="49.338" y2="22.517" gradientUnits="userSpaceOnUse"><stop stop-color="#8BA9BE"/><stop offset="1" stop-color="#71899B"/></linearGradient><linearGradient id="e" x1="33.444" y1="0" x2="36.293" y2="13.728" gradientUnits="userSpaceOnUse"><stop stop-color="#D7E9F8"/><stop offset="1" stop-color="#B2C6D8"/></linearGradient><linearGradient id="f" x1="81.457" y1="1.987" x2="78.901" y2="15.376" gradientUnits="userSpaceOnUse"><stop stop-color="#D7E9F8"/><stop offset="1" stop-color="#B2C6D8"/></linearGradient><linearGradient id="g" x1="85.481" y1="16.63" x2="95.247" y2="35.717" gradientUnits="userSpaceOnUse"><stop stop-color="#8BA9BE"/><stop offset="1" stop-color="#71899B"/></linearGradient><linearGradient id="h" x1="45.285" y1="18.431" x2="54.364" y2="35.891" gradientUnits="userSpaceOnUse"><stop stop-color="#8BA9BE"/><stop offset="1" stop-color="#71899B"/></linearGradient><linearGradient id="i" x1="20.861" y1="33.113" x2="24.503" y2="18.874" gradientUnits="userSpaceOnUse"><stop stop-color="#EAF5FF"/><stop offset="1" stop-color="#CEDFED"/></linearGradient><linearGradient id="j" x1="70.737" y1="33.05" x2="74.346" y2="18.537" gradientUnits="userSpaceOnUse"><stop stop-color="#EAF5FF"/><stop offset="1" stop-color="#CEDFED"/></linearGradient></defs></svg>
