<svg width="69" height="52" fill="none" xmlns="http://www.w3.org/2000/svg"><path fill-rule="evenodd" clip-rule="evenodd" d="M27.102 26.52c-.892-.574-20.755-13.96-21.498-14.481-1.964-1.624-2.994-2.57-4.098-3.886C.306 6.55.04 5.828.02 4.46-.002 3.302.53 2.389.943 1.9 1.877.786 3.544 0 5.222 0h48.007c1.804 0 2.909.467 3.928 1.508.51.52 1.21 1.592 1.274 2.197.18 1.71-.478 3.09-1.582 4.586-1.125 1.519-2.378 2.644-3.97 3.748-5.277 3.673-20.703 14.013-21.382 14.428-.308.19-.987.477-1.178.52a4.457 4.457 0 0 1-1.635.064c-.361-.054-1.04-.181-1.582-.531ZM0 12.696a17.34 17.34 0 0 0 3.291 2.835c4.618 3.142 8.387 5.722 11.306 7.771L0 37.9V12.696ZM35.947 28.92c.764-.51 1.773-1.22 3.015-2.134.243-.172.497-.358.756-.55l.38-.278L56.659 42.53c-.966.86-2.102 1.296-3.418 1.296H5.212c-1.305 0-2.452-.436-3.418-1.296l16.593-16.572 1.147.828a68.344 68.344 0 0 0 3.015 2.134c.764.52 1.794 1.04 3.079 1.572 1.284.53 2.473.796 3.588.796h.064c1.104 0 2.303-.266 3.588-.796 1.274-.542 2.304-1.062 3.079-1.572Zm19.258-13.388a845.968 845.968 0 0 0-11.328 7.771L58.475 37.9V12.696a18.467 18.467 0 0 1-3.27 2.835Z" fill="url(#a)"/><circle cx="57.525" cy="41.275" r="10.525" fill="#1AC23F"/><path d="M56.271 44.531a.828.828 0 0 0 1.191 0l5.163-5.29a.878.878 0 0 0 0-1.221.828.828 0 0 0-1.191 0l-4.567 4.68-2.581-2.645a.828.828 0 0 0-1.192 0 .879.879 0 0 0 0 1.22l3.177 3.256Z" fill="#fff"/><defs><linearGradient id="a" x1="29.238" y1="0" x2="29.238" y2="43.825" gradientUnits="userSpaceOnUse"><stop stop-color="#CBD9E4"/><stop offset="1" stop-color="#9CB6CB"/></linearGradient></defs></svg>