<svg xmlns="http://www.w3.org/2000/svg" width="24" height="17" fill="none"><path fill-rule="evenodd" clip-rule="evenodd" d="M0 8.18C1.887 3.392 6.544 0 11.997 0c5.459 0 10.11 3.392 11.998 8.18-1.887 4.788-6.539 8.18-11.998 8.18-5.453 0-10.11-3.392-11.997-8.18Zm6.544 0a5.455 5.455 0 0 0 5.453 5.453 5.455 5.455 0 0 0 5.454-5.453 5.455 5.455 0 0 0-5.454-5.453A5.455 5.455 0 0 0 6.544 8.18Zm2.182 0a3.275 3.275 0 0 1 3.272-3.272A3.275 3.275 0 0 1 15.27 8.18a3.275 3.275 0 0 1-3.272 3.272A3.275 3.275 0 0 1 8.726 8.18Z" fill="#69869E"/></svg>
