<svg width="13" height="13" viewBox="0 0 13 13" fill="none" xmlns="http://www.w3.org/2000/svg">
    <path fill-rule="evenodd" clip-rule="evenodd" d="M6.83333 0.334034C6.75385 0.33375 6.67246 0.333828 6.589 0.333908L6.46814 0.333984H6.16666H6.11466C5.21618 0.333954 4.46697 0.333929 3.87218 0.413896C3.24439 0.4983 2.67759 0.683971 2.22212 1.13944C1.76665 1.59491 1.58098 2.16171 1.49658 2.7895C1.41661 3.38428 1.41663 4.1335 1.41666 5.03198V5.08398V7.91732V7.96932C1.41663 8.8678 1.41661 9.61701 1.49658 10.2118C1.58098 10.8396 1.76665 11.4064 2.22212 11.8619C2.67759 12.3173 3.24439 12.503 3.87218 12.5874C4.46695 12.6674 5.21615 12.6673 6.11461 12.6673H6.11464L6.16666 12.6673H6.83333L6.88535 12.6673H6.88539C7.78384 12.6673 8.53304 12.6674 9.12781 12.5874C9.7556 12.503 10.3224 12.3173 10.7779 11.8619C11.2333 11.4064 11.419 10.8396 11.5034 10.2118C11.5834 9.61702 11.5834 8.86781 11.5833 7.96934V7.96931L11.5833 7.91732V5.44917L11.5834 5.32832C11.5835 5.24485 11.5836 5.16347 11.5833 5.08398L11.5313 5.08399C10.6329 5.08401 9.88363 5.08404 9.28885 5.00407C8.66106 4.91967 8.09426 4.734 7.63879 4.27853C7.18332 3.82306 6.99765 3.25626 6.91324 2.62846C6.83328 2.03368 6.8333 1.28446 6.83333 0.385985L6.83333 0.334034ZM11.3804 3.58394C11.3783 3.57874 11.3761 3.57355 11.374 3.56837C11.1634 3.05992 10.7721 2.66933 10.2776 2.17582L10.1921 2.09041L9.8269 1.72523L9.7415 1.63971C9.24798 1.14526 8.8574 0.753922 8.34895 0.543316C8.34376 0.541168 8.33857 0.539044 8.33338 0.53694C8.33389 1.3902 8.33959 1.98026 8.39987 2.42859C8.46191 2.89005 8.56913 3.08755 8.69945 3.21787C8.82976 3.34818 9.02726 3.45541 9.48872 3.51745C9.93705 3.57773 10.5271 3.58343 11.3804 3.58394ZM4.875 6.00066C4.59886 6.00066 4.375 6.22451 4.375 6.50066C4.375 6.7768 4.59886 7.00066 4.875 7.00066H8.125C8.40114 7.00066 8.625 6.7768 8.625 6.50066C8.625 6.22451 8.40114 6.00066 8.125 6.00066H4.875ZM4.375 8.66732C4.375 8.39118 4.59886 8.16732 4.875 8.16732H7.04166C7.31781 8.16732 7.54166 8.39118 7.54166 8.66732C7.54166 8.94347 7.31781 9.16732 7.04166 9.16732H4.875C4.59886 9.16732 4.375 8.94347 4.375 8.66732Z" fill="white"/>
</svg>
