<svg xmlns="http://www.w3.org/2000/svg" width="14" height="14" fill="none"><path d="M7 .333A6.674 6.674 0 0 0 .333 7 6.674 6.674 0 0 0 7 13.667 6.674 6.674 0 0 0 13.667 7 6.674 6.674 0 0 0 7 .333Zm0 12.378c-.254 0-.663-.46-1.005-1.486-.16-.48-.289-1.028-.384-1.624a17.6 17.6 0 0 1 2.779 0 10.375 10.375 0 0 1-.385 1.624c-.342 1.027-.751 1.486-1.005 1.486Zm0-4.12c-.517 0-1.022.02-1.509.06a17.652 17.652 0 0 1 0-3.302 18.602 18.602 0 0 0 3.018 0 17.65 17.65 0 0 1 0 3.302c-.487-.04-.992-.06-1.509-.06ZM1.289 7c0-.886.202-1.724.563-2.473.706.323 1.634.568 2.69.717a18.486 18.486 0 0 0 0 3.51c-1.056.15-1.984.394-2.69.717A5.678 5.678 0 0 1 1.29 7ZM7 1.288c.254 0 .663.46 1.005 1.486.16.48.29 1.028.384 1.625a17.574 17.574 0 0 1-2.778 0c.095-.597.224-1.146.384-1.625C6.337 1.75 6.746 1.29 7 1.29Zm2.458 3.956c1.056-.149 1.984-.394 2.69-.717.36.749.563 1.587.563 2.472s-.202 1.724-.563 2.472c-.706-.323-1.634-.568-2.69-.717a18.488 18.488 0 0 0 0-3.51Zm2.2-1.545c-.604.262-1.407.466-2.319.595-.173-1.106-.456-2.094-.846-2.807A5.73 5.73 0 0 1 11.66 3.7ZM5.508 1.488c-.39.713-.673 1.701-.846 2.807-.912-.129-1.715-.333-2.32-.594a5.73 5.73 0 0 1 3.166-2.213ZM2.34 10.3c.605-.262 1.408-.466 2.32-.595.173 1.106.456 2.095.846 2.808A5.73 5.73 0 0 1 2.34 10.3Zm6.152 2.213c.39-.713.673-1.702.846-2.808.912.13 1.715.333 2.32.595a5.73 5.73 0 0 1-3.166 2.213Z" fill="#2C4A62"/></svg>
