<svg xmlns="http://www.w3.org/2000/svg" width="20" height="20" viewBox="0 0 24 23" fill="none"><path d="M12 24c6.608 0 12-5.393 12-12S18.607 0 12 0 0 5.393 0 12c0 6.608 5.393 12 12 12Zm3.56-2.022c.68-.87 1.201-1.905 1.592-2.947h2.765a10.627 10.627 0 0 1-4.357 2.947Zm5.413-4.353h-3.366c.415-1.509.659-3.182.71-4.922h4.253a10.523 10.523 0 0 1-1.597 4.922Zm0-11.25a10.523 10.523 0 0 1 1.597 4.922h-4.253c-.052-1.74-.295-3.413-.71-4.922h3.366Zm-1.056-1.406h-2.765c-.39-1.041-.912-2.078-1.592-2.947a10.629 10.629 0 0 1 4.356 2.947Zm-7.214-3.442c1.38.467 2.37 2.108 2.936 3.442h-2.936V1.527Zm0 4.848h3.442c.447 1.48.71 3.16.765 4.922h-4.207V6.375Zm0 6.328h4.207c-.055 1.763-.318 3.442-.765 4.922h-3.442v-4.922Zm0 6.328h2.936c-.567 1.336-1.557 2.975-2.936 3.443V19.03Zm-8.62 0h2.764c.392 1.041.913 2.078 1.593 2.947a10.629 10.629 0 0 1-4.357-2.947Zm7.214 3.443c-1.379-.468-2.369-2.107-2.936-3.443h2.936v3.443Zm0-4.849H7.855c-.447-1.48-.71-3.16-.765-4.922h4.207v4.922Zm0-6.328H7.09c.055-1.762.318-3.442.765-4.922h3.442v4.922Zm0-9.77v3.442H8.36c.567-1.336 1.557-2.975 2.936-3.442Zm-2.857.495c-.68.87-1.201 1.905-1.593 2.947H4.083A10.629 10.629 0 0 1 8.44 2.022ZM3.027 6.375h3.366c-.415 1.509-.659 3.182-.71 4.922H1.43c.119-1.8.688-3.478 1.597-4.922ZM1.43 12.703h4.253c.051 1.74.295 3.413.71 4.922H3.027a10.523 10.523 0 0 1-1.597-4.922Z" fill="#fff"/></svg>
