<svg width="24" height="24" viewBox="0 0 24 24" fill="none" xmlns="http://www.w3.org/2000/svg">
    <path fill-rule="evenodd" clip-rule="evenodd" d="M2 4C0.895431 4 0 4.89543 0 6V19C0 20.1046 0.895431 21 2 21H22C23.1046 21 24 20.1046 24 19V6C24 4.89543 23.1046 4 22 4H2ZM2 6V19H22V6H2Z" fill="#CBD9E4"/>
    <path d="M8.5 12.5C9.74264 12.5 10.75 11.4926 10.75 10.25C10.75 9.00736 9.74264 8 8.5 8C7.25736 8 6.25 9.00736 6.25 10.25C6.25 11.4926 7.25736 12.5 8.5 12.5Z" fill="#CBD9E4"/>
    <path d="M4 15.3125C4 14.0143 4.87956 12.9215 6.07526 12.5976C6.68879 13.2312 7.54841 13.625 8.5 13.625C9.45159 13.625 10.3112 13.2312 10.9247 12.5976C12.1204 12.9215 13 14.0143 13 15.3125V15.875C13 16.4963 12.4963 17 11.875 17H5.125C4.50368 17 4 16.4963 4 15.875V15.3125Z" fill="#CBD9E4"/>
    <path d="M14 9.6C14 9.26863 14.1679 9 14.375 9H19.625C19.8321 9 20 9.26863 20 9.6C20 9.93137 19.8321 10.2 19.625 10.2H14.375C14.1679 10.2 14 9.93137 14 9.6Z" fill="#CBD9E4"/>
    <path d="M14 12C14 11.6686 14.1679 11.4 14.375 11.4H19.625C19.8321 11.4 20 11.6686 20 12C20 12.3314 19.8321 12.6 19.625 12.6H14.375C14.1679 12.6 14 12.3314 14 12Z" fill="#CBD9E4"/>
    <path d="M14.375 13.8C14.1679 13.8 14 14.0686 14 14.4C14 14.7314 14.1679 15 14.375 15H19.625C19.8321 15 20 14.7314 20 14.4C20 14.0686 19.8321 13.8 19.625 13.8H14.375Z" fill="#CBD9E4"/>
</svg>
