<svg width="21" height="21" viewBox="0 0 21 21" fill="none" xmlns="http://www.w3.org/2000/svg">
<path d="M10.3435 19.25C10.9031 19.25 11.3568 18.7963 11.3568 18.2366C11.3568 17.6769 10.9031 17.2232 10.3435 17.2232H4.65177V3.77677H10.3435C10.9031 3.77677 11.3568 3.32305 11.3568 2.76339C11.3568 2.20372 10.9031 1.75 10.3435 1.75H3.63839C3.07872 1.75 2.625 2.20372 2.625 2.76339V18.2366C2.625 18.7963 3.07872 19.25 3.63839 19.25H10.3435Z" fill="white"/>
<path fill-rule="evenodd" clip-rule="evenodd" d="M13.7531 6.1729C13.3575 6.56864 13.3574 7.21024 13.7532 7.60602L15.6337 9.48661H9.1304C8.57074 9.48661 8.11701 9.94034 8.11701 10.5C8.11701 11.0597 8.57074 11.5134 9.1304 11.5134H15.6335L13.7532 13.3938C13.3574 13.7895 13.3574 14.4311 13.7532 14.8269C13.951 15.0248 14.2108 15.1237 14.4698 15.1237C14.7287 15.1237 14.9885 15.0247 15.1863 14.8269L18.7966 11.2166C19.1924 10.8209 19.1924 10.1792 18.7966 9.78346L15.1863 6.17294C14.7906 5.77723 14.1489 5.77721 13.7531 6.1729Z" fill="white"/>
</svg>
