<svg width="153" height="41" fill="none" xmlns="http://www.w3.org/2000/svg"><path d="M51.45 15.7c1.5 0 2.6 1.1 2.8 2.8h-6.1c.4-1.7 1.6-2.8 3.3-2.8Zm.1-2.4c-3.9 0-6.6 2.9-6.6 7 0 4 2.9 7 7 7 1.8 0 3.8-.7 5.1-1.9.1-.1.1-.2.1-.3l-1-1.8c0-.1-.1-.1-.2-.1s-.2 0-.2.1c-1 .9-2.3 1.4-3.5 1.4-1.9 0-3.8-1.1-4-3.7h8.9c.1 0 .2-.1.3-.2.1-.4.1-.7.1-1.1-.3-3.9-2.6-6.4-6-6.4ZM64.85 24.8c-1.4 0-2.1-.9-2.1-1.8 0-1.5 1.6-2.2 4.9-2.2h.3v.2c0 1.8-1.2 3.8-3.1 3.8Zm.8-11.5c-1.8 0-3.8.7-4.9 1.6-.1.1-.1.2-.1.3l1 1.8c0 .1.1.1.2.1h.2c1.1-.8 2.3-1.2 3.4-1.2 1.7 0 2.5.8 2.5 2.5h-.4c-5 0-7.8 1.7-7.8 4.8 0 2.7 2.3 4.1 4.5 4.1 1.5 0 2.9-.7 3.8-1.9v1.3c0 .2.1.3.3.3h2.3c.2 0 .3-.1.3-.3v-8.1c0-3.4-1.9-5.3-5.3-5.3ZM82.55 13.5c-.2 0-.4-.1-.7-.1-1.5 0-2.9.9-3.7 2.3v-1.9c0-.2-.1-.3-.3-.3h-2.3c-.1 0-.3.1-.3.3v12.8c0 .2.1.3.3.3h2.4c.1 0 .3-.1.3-.3v-5.3c0-2.5 1.1-4.9 3.6-4.9h.6c.1 0 .2 0 .2-.1.1-.1.1-.1.1-.2v-2.4c0-.1-.1-.2-.2-.2ZM90.25 24.3h-.4c-.5 0-1.1-.1-1.1-1.5v-14c0-.2-.1-.3-.3-.3h-2.4c-.1 0-.3.1-.3.3v14.4c0 2.6 1.2 3.9 3.7 3.9.3 0 .6 0 .8-.1h.1c.1 0 .2-.1.2-.3v-2.2c0-.1 0-.2-.1-.2h-.2ZM104.75 13.6h-2.6c-.1 0-.2.1-.3.2l-3.1 8.4c-.1.2-.1.4-.2.7-.1-.2-.2-.5-.2-.7l-3.2-8.4c0-.1-.1-.2-.3-.2h-2.7c-.1 0-.2 0-.2.1v.3l5.2 12.6-.6 1.4c-.4 1.1-1.2 1.7-2 1.7-.6 0-1.3-.5-1.3-.5-.1-.1-.2-.1-.2-.1-.1 0-.1.1-.2.2l-.8 1.9c-.1.1 0 .3.1.3 0 0 1.1.8 2.6.8 2 0 3.6-1.2 4.3-3.2l5.9-15.1v-.3c0-.1-.1-.1-.2-.1Z" fill="#062642"/><path d="M113.85 24.6c-2.3 0-4.1-1.9-4.1-4.3s1.7-4.3 4.1-4.3c2.3 0 4.1 1.8 4.1 4.3 0 2.4-1.8 4.3-4.1 4.3Zm0-11.3c-4 0-7 3.1-7 7 0 4 3 7 7.1 7 4 0 7-3.1 7-7 0-4-3-7-7.1-7ZM131.95 13.3c-2.2 0-3.7 1.2-4.5 2.2v-1.7c0-.2-.1-.3-.3-.3h-2.3c-.1 0-.3.1-.3.3v12.8c0 .2.1.3.3.3h2.4c.1 0 .3-.1.3-.3v-6.2c0-2.5 1.7-4.4 3.9-4.4 1.7 0 2.1 1.1 2.1 2.9v7.6c0 .2.1.3.3.3h2.4c.1 0 .3-.1.3-.3v-8.2c0-3.3-1.5-5-4.6-5ZM146.55 15.7c1.5 0 2.6 1.1 2.8 2.8h-6.1c.4-1.7 1.6-2.8 3.3-2.8Zm.1-2.4c-3.9 0-6.6 2.9-6.6 7 0 4 2.9 7 7 7 1.8 0 3.8-.7 5.1-1.9.1-.1.1-.2.1-.3l-1-1.8c0-.1-.1-.1-.2-.1s-.2 0-.2.1c-1 .9-2.3 1.4-3.5 1.4-1.9 0-3.8-1.1-4-3.7h8.9c.1 0 .2-.1.3-.2.1-.4.1-.7.1-1.1-.3-3.9-2.6-6.4-6-6.4ZM36.95 16.2l-4.4-4.5c-.6-.7-1.7-.7-2.3 0l-1.5 1.5c-.6.7-.6 1.7 0 2.4l3.2 3.3c.6.7.6 1.7 0 2.4l-14.9 15.1c-.6.7-.6 1.7 0 2.4l1.5 1.5c.6.7 1.7.7 2.3 0l18.7-19c.6-.7.6-1.7 0-2.4l-2.6-2.7Z" fill="#FDB913"/><path d="M21.15 9.7 9.45 21.6c-.5.5-1.2.5-1.7 0s-.5-1.2 0-1.7L19.45 8c.5-.5 1.2-.5 1.7 0s.5 1.2 0 1.7Zm7.4 9.3-1.5-1.5c-.6-.7-1.7-.7-2.3 0l-9.6 9.8c-.5.5-1.2.5-1.7 0s-.5-1.2 0-1.7L28.55 10c.6-.7.6-1.7 0-2.4l-1-1-1.7-1.7-1.7-1.7-1.8-1.8-.9-.9c-.6-.7-1.7-.7-2.3 0l-18.7 19c-.6.7-.6 1.7 0 2.4l.9.9 11.7 11.9c.6.7 1.7.7 2.3 0l13.2-13.4c.6-.6.6-1.7 0-2.3Z" fill="#0FACBD"/></svg>