<svg xmlns="http://www.w3.org/2000/svg" width="14" height="10" fill="none"><path fill-rule="evenodd" clip-rule="evenodd" d="M6.513 6.047c-.203-.13-4.732-3.183-4.902-3.302-.448-.37-.682-.586-.934-.886-.274-.365-.334-.53-.34-.842A.896.896 0 0 1 .549.433C.761.18 1.142 0 1.524 0h10.947c.411 0 .663.107.895.344.116.118.276.363.29.5.042.39-.108.705-.36 1.047a3.67 3.67 0 0 1-.905.854c-1.203.838-4.72 3.195-4.876 3.29a1.41 1.41 0 0 1-.268.119c-.121.029-.25.031-.373.014a.94.94 0 0 1-.36-.121ZM.333 2.895c.218.242.468.457.75.646 1.054.717 1.913 1.305 2.579 1.772L.333 8.642V2.895Zm8.197 3.7c.174-.117.404-.28.687-.488.056-.039.114-.081.173-.125l.086-.063 3.777 3.778c-.22.197-.48.296-.78.296H1.522c-.298 0-.56-.1-.78-.296L4.526 5.92l.261.188c.281.209.511.37.688.487.174.119.409.237.702.358s.564.182.818.182h.015c.251 0 .525-.06.818-.182a4.54 4.54 0 0 0 .702-.358ZM12.92 3.54a192.77 192.77 0 0 0-2.583 1.772l3.329 3.329V2.895a4.207 4.207 0 0 1-.746.646Z" fill="#2C4A62"/></svg>
