<svg width="24" height="24" viewBox="0 0 24 24" fill="none" xmlns="http://www.w3.org/2000/svg">
    <path fill-rule="evenodd" clip-rule="evenodd" d="M11.2697 13.5705C10.9647 13.3744 4.17088 8.79559 3.91671 8.61767C3.24495 8.06211 2.89274 7.73894 2.5151 7.28868C2.10479 6.74039 2.01401 6.49347 2.00675 6.02506C1.99949 5.62927 2.18104 5.317 2.32265 5.14997C2.64219 4.7687 3.21227 4.5 3.78599 4.5H20.2058C20.8231 4.5 21.2007 4.65977 21.5493 5.01562C21.7236 5.19354 21.9633 5.56028 21.9851 5.76725C22.0468 6.35186 21.8217 6.8239 21.444 7.33589C21.0591 7.85514 20.6307 8.24003 20.086 8.61767C18.2813 9.87403 13.0053 13.4107 12.773 13.5523C12.6677 13.6177 12.4353 13.7157 12.3699 13.7303C12.1883 13.7738 11.9959 13.7775 11.8107 13.752C11.6873 13.7339 11.4549 13.6903 11.2697 13.5705ZM2 8.84246C2.3268 9.20556 2.7008 9.52873 3.12564 9.81196C4.70517 10.8868 5.99421 11.7691 6.99276 12.4699L2 17.4627V8.84246ZM14.2948 14.3911C14.5562 14.2168 14.9012 13.9736 15.326 13.6613C15.4093 13.6025 15.4959 13.5387 15.5847 13.4734L15.5848 13.4733L15.585 13.4731C15.6277 13.4417 15.6709 13.4099 15.7145 13.3781L21.3791 19.0462C21.0486 19.3403 20.6601 19.4892 20.2098 19.4892H3.78274C3.33612 19.4892 2.94396 19.3403 2.61353 19.0462L8.28894 13.3781C8.43055 13.4797 8.56127 13.5741 8.6811 13.6613C9.10231 13.9736 9.44726 14.2168 9.71233 14.3911C9.97377 14.5691 10.326 14.747 10.7654 14.9285C11.2047 15.1101 11.6114 15.2009 11.9927 15.2009H12.0036H12.0144C12.3921 15.2009 12.8024 15.1101 13.2418 14.9285C13.6775 14.7434 14.0297 14.5654 14.2948 14.3911ZM20.8816 9.81196C19.3602 10.8396 18.0712 11.7255 17.0072 12.4699L22 17.4627V8.84246C21.6768 9.1983 21.3065 9.52147 20.8816 9.81196Z" fill="#69869E"/>
</svg>
