<svg width="16" height="16" viewBox="0 0 20 20" fill="none" xmlns="http://www.w3.org/2000/svg">
<path d="M2 2H8C8.55228 2 9 1.55228 9 1C9 0.447715 8.55228 0 8 0H2C0.895431 0 0 0.895431 0 2V18C0 19.1046 0.895431 20 2 20H18C19.1046 20 20 19.1046 20 18V12C20 11.4477 19.5523 11 19 11C18.4477 11 18 11.4477 18 12V18H2V2Z" fill="#69869E"/>
<path d="M10 4C9.44772 4 9 4.44772 9 5V11H15C15.5523 11 16 10.5523 16 10C16 9.44772 15.5523 9 15 9H12.4853L19.364 2.12132C19.7545 1.7308 19.7545 1.09763 19.364 0.707107C18.9734 0.316583 18.3403 0.316582 17.9497 0.707106L11 7.65685V5C11 4.44772 10.5523 4 10 4Z" fill="#69869E"/>
</svg>
