<svg width="12" height="18" viewBox="0 0 12 18" fill="none" xmlns="http://www.w3.org/2000/svg">
<path d="M10.0307 0H1.95078C1.19082 0 0.550781 0.558 0.550781 1.26V16.74C0.550781 17.424 1.17078 18 1.95078 18H10.0508C10.8107 18 11.4508 17.442 11.4508 16.74V1.26C11.4307 0.558 10.8107 0 10.0307 0ZM5.99074 0.990035C6.2107 0.990035 6.39078 1.15211 6.39078 1.35007C6.39078 1.54804 6.2107 1.71011 5.99074 1.71011C5.77078 1.71011 5.5907 1.54804 5.5907 1.35007C5.5907 1.15211 5.77078 0.990035 5.99074 0.990035ZM7.19086 17.01H4.7909V16.2899H7.19086V17.01ZM10.6309 15.282H1.33078V2.71796H10.6309V15.282Z" fill="#07ABBC"/>
</svg>
