<svg xmlns="http://www.w3.org/2000/svg" width="12" height="12" fill="none"><path d="M11.731 9.47 9.878 7.617c-.37-.368-.98-.357-1.363.025l-.933.934-.185-.103c-.59-.327-1.396-.774-2.245-1.624-.852-.852-1.3-1.66-1.628-2.25-.034-.062-.067-.123-.1-.18l.626-.626.309-.308c.382-.383.393-.994.024-1.362L2.53.269C2.162-.1 1.55-.088 1.168.295L.645.82.66.834a3.02 3.02 0 0 0-.43.76c-.101.264-.164.516-.192.77-.245 2.028.682 3.882 3.198 6.398 3.478 3.477 6.28 3.214 6.401 3.202a3.131 3.131 0 0 0 1.529-.623l.011.01.53-.518c.381-.382.392-.994.024-1.363Z" fill="#2C4A62"/></svg>
