<svg width="16" height="16" viewBox="0 0 16 16" fill="none" xmlns="http://www.w3.org/2000/svg">
<path d="M2.6665 7.00002C2.11422 7.00002 1.6665 7.44774 1.6665 8.00002C1.6665 8.5523 2.11422 9.00002 2.6665 9.00002H6.99984V13.3334C6.99984 13.8856 7.44755 14.3334 7.99984 14.3334C8.55212 14.3334 8.99984 13.8856 8.99984 13.3334V9.00002H13.3332C13.8855 9.00002 14.3332 8.5523 14.3332 8.00002C14.3332 7.44774 13.8855 7.00002 13.3332 7.00002H8.99984V2.66669C8.99984 2.1144 8.55212 1.66669 7.99984 1.66669C7.44755 1.66669 6.99984 2.1144 6.99984 2.66669V7.00002H2.6665Z" fill="#07ABBC"/>
</svg>
