<svg width="17" height="17" viewBox="0 0 17 17" fill="none" xmlns="http://www.w3.org/2000/svg">
<path d="M8.49998 8.49998C10.6746 8.49998 12.4375 6.7371 12.4375 4.56249C12.4375 2.38787 10.6746 0.625 8.49998 0.625C6.32536 0.625 4.56249 2.38787 4.56249 4.56249C4.56249 6.7371 6.32536 8.49998 8.49998 8.49998Z" fill="white"/>
<path d="M0.625 13.4219C0.625 11.15 2.16422 9.23771 4.2567 8.67085C5.33038 9.77957 6.83469 10.4688 8.49998 10.4688C10.1653 10.4688 11.6696 9.77957 12.7433 8.67085C14.8357 9.23771 16.375 11.15 16.375 13.4219V14.4063C16.375 15.4936 15.4935 16.375 14.4062 16.375H2.59374C1.50644 16.375 0.625 15.4936 0.625 14.4063V13.4219Z" fill="white"/>
</svg>
