<svg xmlns="http://www.w3.org/2000/svg" width="18" height="14" fill="none"><path d="m13.64 5.502-1.488 1.489a.884.884 0 1 0 1.25 1.25l.4-.4a4.876 4.876 0 0 1-6.438 3.753 1.497 1.497 0 0 0-.502-.094c-1.118 0-1.593 1.237-.568 1.685a6.751 6.751 0 0 0 9.406-5.36l.416.416a.884.884 0 0 0 1.25-1.25l-1.982-1.982a.884.884 0 0 0-1.25 0l-.491.491h-.003v.002ZM4.36 8.5v-.002l1.488-1.489a.884.884 0 0 0-1.25-1.25l-.4.4a4.876 4.876 0 0 1 6.438-3.753c.162.058.33.094.502.094 1.118 0 1.592-1.237.568-1.686A6.751 6.751 0 0 0 2.3 6.174l-.416-.415a.884.884 0 0 0-1.25 1.25l1.982 1.982a.884.884 0 0 0 1.25 0l.491-.491h.003Z" fill="#07ABBC"/></svg>
