<svg width="22" height="22" viewBox="0 0 22 22" fill="none" xmlns="http://www.w3.org/2000/svg">
<path d="M12.5 15.5L13.5 14.5L15 16L17.5 13.5L18.5 14.5L15 18L12.5 15.5Z" fill="white"/>
<path fill-rule="evenodd" clip-rule="evenodd" d="M5 0C4.44772 0 4 0.447715 4 1V2H2C0.895431 2 0 2.89543 0 4V18C0 19.1046 0.895431 20 2 20H10.8096C11.9925 21.2327 13.6566 22 15.5 22C19.0899 22 22 19.0899 22 15.5C22 13.6566 21.2327 11.9925 20 10.8096V4C20 2.89543 19.1046 2 18 2H16V1C16 0.447715 15.5523 0 15 0C14.4477 0 14 0.447715 14 1V2H6V1C6 0.447715 5.55228 0 5 0ZM9 15.5C9 16.3859 9.17723 17.2304 9.49816 18H2V7H18V9.49816C17.2304 9.17723 16.3859 9 15.5 9C11.9101 9 9 11.9101 9 15.5ZM15.5 20.5C18.2614 20.5 20.5 18.2614 20.5 15.5C20.5 12.7386 18.2614 10.5 15.5 10.5C12.7386 10.5 10.5 12.7386 10.5 15.5C10.5 18.2614 12.7386 20.5 15.5 20.5Z" fill="white"/>
</svg>
