<svg width="18" height="18" viewBox="0 0 18 18" fill="none" xmlns="http://www.w3.org/2000/svg">
    <path fill-rule="evenodd" clip-rule="evenodd" d="M17 2L7.82929 2C7.41746 0.834808 6.30622 0 5 0C3.69378 0 2.58254 0.834808 2.17071 2H1C0.447715 2 0 2.44772 0 3C0 3.55228 0.447716 4 1 4H2.17071C2.58254 5.16519 3.69378 6 5 6C6.30622 6 7.41746 5.16519 7.82929 4H17C17.5523 4 18 3.55228 18 3C18 2.44772 17.5523 2 17 2ZM5 4C5.55229 4 6 3.55228 6 3C6 2.44772 5.55229 2 5 2C4.44772 2 4 2.44772 4 3C4 3.55228 4.44772 4 5 4Z" fill="#CBD9E4"/>
    <path fill-rule="evenodd" clip-rule="evenodd" d="M0 9C0 8.44771 0.447715 8 1 8H10.1707C10.5825 6.83481 11.6938 6 13 6C14.3062 6 15.4175 6.83481 15.8293 8H17C17.5523 8 18 8.44771 18 9C18 9.55229 17.5523 10 17 10H15.8293C15.4175 11.1652 14.3062 12 13 12C11.6938 12 10.5825 11.1652 10.1707 10H1C0.447716 10 0 9.55229 0 9ZM13 10C13.5523 10 14 9.55229 14 9C14 8.44771 13.5523 8 13 8C12.4477 8 12 8.44771 12 9C12 9.55229 12.4477 10 13 10Z" fill="#CBD9E4"/>
    <path fill-rule="evenodd" clip-rule="evenodd" d="M1 14C0.447715 14 0 14.4477 0 15C0 15.5523 0.447716 16 1 16H2.17071C2.58254 17.1652 3.69378 18 5 18C6.30622 18 7.41746 17.1652 7.82929 16H17C17.5523 16 18 15.5523 18 15C18 14.4477 17.5523 14 17 14H7.82929C7.41746 12.8348 6.30622 12 5 12C3.69378 12 2.58254 12.8348 2.17071 14H1ZM6 15C6 15.5523 5.55229 16 5 16C4.44772 16 4 15.5523 4 15C4 14.4477 4.44772 14 5 14C5.55229 14 6 14.4477 6 15Z" fill="#CBD9E4"/>
</svg>
