<svg width="22" height="20" viewBox="0 0 22 20" fill="none" xmlns="http://www.w3.org/2000/svg">
<path fill-rule="evenodd" clip-rule="evenodd" d="M14.9219 0.0487223C14.5041 -0.119599 14.0595 0.170165 13.8749 0.581021C13.3823 1.6779 12.2804 2.44177 11 2.44177C9.71965 2.44177 8.6177 1.6779 8.12506 0.581019C7.94053 0.170164 7.49584 -0.119594 7.07808 0.0487278C6.05517 0.460875 5.11209 1.02944 4.27844 1.72479C3.9554 1.99425 3.96992 2.4802 4.19773 2.83383C4.81667 3.79459 4.88926 5.05945 4.2785 6.1173C3.68612 7.14331 2.6037 7.71 1.49757 7.69241C1.07652 7.68572 0.655822 7.93067 0.598449 8.34785C0.533534 8.81988 0.5 9.30191 0.5 9.79177C0.5 10.2452 0.528737 10.6919 0.584495 11.1302C0.639329 11.5612 1.08075 11.8098 1.51483 11.791C2.65053 11.7419 3.77398 12.311 4.38168 13.3636C5.01193 14.4552 4.91455 15.7672 4.24002 16.7381C3.99237 17.0945 3.96623 17.5998 4.30029 17.8769C5.12855 18.564 6.06409 19.1263 7.07809 19.5348C7.49584 19.7031 7.94053 19.4134 8.12506 19.0025C8.6177 17.9056 9.71965 17.1418 11 17.1418C12.2804 17.1418 13.3823 17.9056 13.8749 19.0025C14.0595 19.4134 14.5041 19.7031 14.9219 19.5348C15.7495 19.2014 16.5249 18.7655 17.2323 18.2429C17.618 17.9581 17.574 17.3831 17.2749 17.0084C16.4901 16.0251 16.342 14.6227 17.0091 13.4673C17.6958 12.2779 19.0411 11.7057 20.3184 11.9455C20.7901 12.0341 21.3188 11.8027 21.3884 11.3278C21.4619 10.8265 21.5 10.3136 21.5 9.79177C21.5 9.23946 21.4574 8.69711 21.3752 8.16784C21.3036 7.70694 20.7981 7.47645 20.3375 7.54997C19.0856 7.74978 17.7839 7.17695 17.1123 6.01359C16.4641 4.89085 16.5855 3.53494 17.313 2.5569C17.5911 2.18306 17.6212 1.6289 17.2469 1.35142C16.5356 0.824054 15.7552 0.384485 14.9219 0.0487223ZM14.15 9.79177C14.15 11.5315 12.7397 12.9418 11 12.9418C9.2603 12.9418 7.85 11.5315 7.85 9.79177C7.85 8.05207 9.2603 6.64177 11 6.64177C12.7397 6.64177 14.15 8.05207 14.15 9.79177Z" fill="white"/>
</svg>
