<svg width="24" height="18" viewBox="0 0 24 24" fill="none" xmlns="http://www.w3.org/2000/svg">
<path fill-rule="evenodd" clip-rule="evenodd" d="M14.5 4V3C14.5 2.44772 14.0523 2 13.5 2H10.5C9.94772 2 9.5 2.44772 9.5 3V4H6.5C5.39543 4 4.5 4.89543 4.5 6V7H19.5V6C19.5 4.89543 18.6046 4 17.5 4H14.5ZM18.5 9H5.5V19C5.5 20.6569 6.84315 22 8.5 22H15.5C17.1569 22 18.5 20.6569 18.5 19V9ZM9.5 11C8.94772 11 8.5 11.4477 8.5 12V18C8.5 18.5523 8.94772 19 9.5 19C10.0523 19 10.5 18.5523 10.5 18V12C10.5 11.4477 10.0523 11 9.5 11ZM13.5 12C13.5 11.4477 13.9477 11 14.5 11C15.0523 11 15.5 11.4477 15.5 12V18C15.5 18.5523 15.0523 19 14.5 19C13.9477 19 13.5 18.5523 13.5 18V12Z" fill="#69869E"/>
</svg>
