<svg width="24" height="18" viewBox="0 0 24 18" fill="none" xmlns="http://www.w3.org/2000/svg">
<path d="M13.6464 5.73077C13.6464 7.57703 12.796 9.19988 11.5117 10.1308C11.5117 11.1909 12.1432 11.6738 13.0396 12.0462C13.0435 12.0479 13.0474 12.0495 13.0513 12.0511C13.3522 12.1754 13.6826 12.2877 14.0287 12.4052C14.0287 12.4052 14.0287 12.4052 14.0287 12.4052C14.3024 12.4982 14.586 12.5945 14.8726 12.7028C15.1136 12.7939 15.3396 12.8697 15.5512 12.9407C16.8639 13.3812 17.6229 13.6359 17.9888 16.1947C18.091 16.9099 17.4806 17.5 16.7468 17.5H9.06684L8.92538 17.4997H1.24501C0.511174 17.4997 -0.10048 16.9088 0.0138037 16.1954C0.417198 13.6773 1.23901 13.3899 2.45868 12.9634C2.67941 12.8863 2.91317 12.8045 3.15984 12.7042C3.46702 12.5792 3.77936 12.4702 4.08372 12.364C5.37426 11.9136 6.52116 11.5133 6.52116 10.1602C5.21395 9.23436 4.34536 7.59665 4.34536 5.73077C4.34536 2.8419 6.42747 0.5 8.99588 0.5C11.5643 0.5 13.6464 2.8419 13.6464 5.73077Z" fill="white"/>
<path d="M14.5025 9.83144C14.0325 9.98964 13.6592 10.1153 13.3857 10.558C13.565 10.6463 13.7977 10.7377 14.1113 10.8477C14.2185 10.8853 14.342 10.9273 14.4747 10.9724C14.7621 11.0701 15.0938 11.1829 15.4028 11.2996C15.592 11.3711 15.7745 11.4333 15.9654 11.4975L16.0284 11.5186C16.1948 11.5744 16.3784 11.636 16.5531 11.7007C16.9504 11.8478 17.4301 12.055 17.8767 12.4232C17.9072 12.4483 17.9372 12.4739 17.9666 12.4998H18.4544L18.5409 12.5H23.2341C23.6826 12.5 24.0556 12.1529 23.9931 11.7322C23.7696 10.227 23.3057 10.0772 22.5035 9.81807C22.3742 9.7763 22.2361 9.73169 22.0888 9.67811C21.9137 9.61441 21.7404 9.55776 21.5732 9.50309C20.7271 9.22648 20.0349 9.00021 20.0349 8.16517C20.8198 7.61758 21.3395 6.66296 21.3395 5.57692C21.3395 3.87759 20.0671 2.5 18.4975 2.5C16.9279 2.5 15.6555 3.87759 15.6555 5.57692C15.6555 6.6745 16.1863 7.63786 16.9852 8.1825C16.9852 8.9784 16.2843 9.21386 15.4956 9.47881C15.3096 9.5413 15.1187 9.60542 14.931 9.67893C14.7803 9.73795 14.6374 9.78603 14.5025 9.83144Z" fill="white"/>
</svg>
