<svg width="24" height="24" viewBox="0 0 24 24" fill="none" xmlns="http://www.w3.org/2000/svg">
    <path d="M12 12C14.4853 12 16.5 9.98526 16.5 7.49999C16.5 5.01471 14.4853 3 12 3C9.5147 3 7.49999 5.01471 7.49999 7.49999C7.49999 9.98526 9.5147 12 12 12Z" fill="#69869E"/>
    <path d="M3 17.625C3 15.0286 4.75911 12.8431 7.15052 12.1953C8.37757 13.4624 10.0968 14.25 12 14.25C13.9032 14.25 15.6224 13.4624 16.8494 12.1953C19.2408 12.8431 21 15.0286 21 17.625V18.75C21 19.9926 19.9926 21 18.75 21H5.24999C4.00736 21 3 19.9926 3 18.75V17.625Z" fill="#69869E"/>
</svg>
