<svg width="14" height="16" viewBox="0 0 14 16" fill="none" xmlns="http://www.w3.org/2000/svg">
<path d="M13.8451 15.0125L10.6998 11.4248C11.8936 10.2155 12.6385 8.51985 12.6385 6.64346C12.6385 2.98026 9.80371 0 6.31923 0C2.83474 0 0 2.98019 0 6.64346C0 10.3067 2.83474 13.2869 6.31923 13.2869C7.61917 13.2869 8.82857 12.8717 9.83426 12.1613L13.0454 15.821C13.1543 15.94 13.2997 16 13.4453 16C13.5836 16 13.7222 15.946 13.8297 15.8372C14.0506 15.6138 14.0575 15.2446 13.8451 15.0125ZM1.10954 6.64346C1.10954 3.62346 3.44662 1.16647 6.31923 1.16647C9.19184 1.16647 11.5289 3.62346 11.5289 6.64346C11.5289 9.66346 9.19184 12.1204 6.31923 12.1204C3.44662 12.1204 1.10954 9.66346 1.10954 6.64346Z" fill="#07ABBC"/>
</svg>
